<svg width="48" height="48" viewBox="0 0 48 48" fill="none" xmlns="http://www.w3.org/2000/svg">
<circle cx="24" cy="24" r="24" fill="#161617"/>
<g clip-path="url(#clip0_285_120)">
<path d="M35 21.8395C32.9363 21.8445 30.9233 21.2009 29.2452 19.9997V28.3772C29.2446 29.9288 28.7703 31.4432 27.8858 32.718C27.0013 33.9928 25.7487 34.9672 24.2954 35.5109C22.8422 36.0545 21.2576 36.1416 19.7536 35.7604C18.2495 35.3791 16.8977 34.5478 15.8789 33.3776C14.8601 32.2074 14.2228 30.754 14.0523 29.2118C13.8817 27.6696 14.1861 26.112 14.9247 24.7475C15.6632 23.3829 16.8008 22.2764 18.1852 21.5758C19.5697 20.8752 21.135 20.614 22.6719 20.827V25.0406C21.9686 24.8194 21.2134 24.8261 20.5141 25.0597C19.8148 25.2933 19.2072 25.7418 18.7781 26.3413C18.349 26.9408 18.1203 27.6606 18.1246 28.3979C18.129 29.1351 18.3661 29.8521 18.8023 30.4466C19.2385 31.041 19.8513 31.4824 20.5533 31.7077C21.2553 31.933 22.0105 31.9308 22.7111 31.7013C23.4118 31.4718 24.022 31.0268 24.4546 30.4298C24.8872 29.8329 25.1202 29.1145 25.1202 28.3772V12H29.2452C29.2423 12.3483 29.2715 12.6962 29.3324 13.0392C29.4757 13.8049 29.7737 14.5333 30.2082 15.1799C30.6427 15.8264 31.2046 16.3776 31.8594 16.7995C32.791 17.4155 33.8832 17.7438 35 17.7436V21.8395Z" fill="white"/>
</g>
<defs>
<clipPath id="clip0_285_120">
<rect width="21" height="24" fill="white" transform="translate(14 12)"/>
</clipPath>
</defs>
</svg>
