<svg width="48" height="48" viewBox="0 0 48 48" fill="none" xmlns="http://www.w3.org/2000/svg">
<circle cx="24" cy="24" r="24" fill="#161617"/>
<g clip-path="url(#clip0_286_127)">
<path d="M29.5391 23.0484C29.6422 23.0906 29.7359 23.1375 29.8344 23.1797C31.2031 23.8406 32.2063 24.8297 32.7313 26.0578C33.4672 27.7687 33.5375 30.5484 31.3109 32.7703C29.6141 34.4672 27.5469 35.2313 24.6266 35.2547H24.6125C21.3219 35.2313 18.7953 34.125 17.0938 31.9641C15.5797 30.0422 14.8016 27.3656 14.7734 24.0141V24V23.9906C14.7969 20.6391 15.575 17.9625 17.0891 16.0406C18.7906 13.8797 21.3219 12.7734 24.6125 12.75H24.6266C27.9219 12.7734 30.4812 13.875 32.2344 16.0266C33.0969 17.0906 33.7344 18.3703 34.1375 19.8563L32.2438 20.3625C31.9109 19.1531 31.4094 18.1219 30.7344 17.2969C29.3656 15.6188 27.3125 14.7563 24.6172 14.7375C21.9453 14.7609 19.925 15.6188 18.6078 17.2875C17.3797 18.8484 16.7422 21.1078 16.7188 24C16.7422 26.8922 17.3797 29.1516 18.6078 30.7172C19.9203 32.3859 21.9453 33.2438 24.6172 33.2672C27.0266 33.2484 28.6203 32.6766 29.9469 31.35C31.4609 29.8406 31.4328 27.9844 30.95 26.8547C30.6641 26.1891 30.1484 25.6359 29.4547 25.2188C29.2813 26.4797 28.9016 27.4828 28.2969 28.2562C27.4953 29.2781 26.3563 29.8313 24.8891 29.9109C23.7828 29.9719 22.7187 29.7047 21.8937 29.1609C20.9187 28.5141 20.3469 27.5297 20.2859 26.3812C20.1688 24.1172 21.9594 22.4906 24.7484 22.3312C25.7375 22.275 26.6656 22.3172 27.5234 22.4625C27.4109 21.7687 27.1812 21.2156 26.8391 20.8125C26.3703 20.2641 25.6391 19.9828 24.6734 19.9781H24.6406C23.8625 19.9781 22.8125 20.1937 22.1422 21.2109L20.5297 20.1047C21.4297 18.7406 22.8875 17.9906 24.6453 17.9906H24.6828C27.6172 18.0094 29.3656 19.8422 29.5438 23.0391L29.5344 23.0484H29.5391ZM22.2266 26.2734C22.2875 27.45 23.5578 27.9984 24.7859 27.9281C25.9859 27.8625 27.3453 27.3938 27.575 24.4969C26.9563 24.3609 26.2719 24.2906 25.5406 24.2906C25.3156 24.2906 25.0906 24.2953 24.8656 24.3094C22.8547 24.4219 22.1844 25.3969 22.2313 26.2687L22.2266 26.2734Z" fill="white"/>
</g>
<defs>
<clipPath id="clip0_286_127">
<rect width="21" height="24" fill="white" transform="translate(14 12)"/>
</clipPath>
</defs>
</svg>
